<svg version="1.1" viewBox="0.0 0.0 960.0 720.0" fill="none" stroke="none" stroke-linecap="square" stroke-miterlimit="10" xmlns:xlink="http://www.w3.org/1999/xlink" xmlns="http://www.w3.org/2000/svg"><clipPath id="p.0"><path d="m0 0l960.0 0l0 720.0l-960.0 0l0 -720.0z" clip-rule="nonzero"/></clipPath><g clip-path="url(#p.0)"><path fill="#000000" fill-opacity="0.0" d="m0 0l960.0 0l0 720.0l-960.0 0z" fill-rule="evenodd"/><path stroke="#9e9e9e" stroke-width="1.0" stroke-linecap="butt" d="m195.50656 236.86351l0 53.79265" fill-rule="nonzero"/><path stroke="#9e9e9e" stroke-width="1.0" stroke-linecap="butt" d="m266.6299 236.86351l0 53.79265" fill-rule="nonzero"/><path stroke="#9e9e9e" stroke-width="1.0" stroke-linecap="butt" d="m337.7533 236.86351l0 53.79265" fill-rule="nonzero"/><path stroke="#9e9e9e" stroke-width="1.0" stroke-linecap="butt" d="m408.87665 236.86351l0 53.79265" fill-rule="nonzero"/><path stroke="#9e9e9e" stroke-width="1.0" stroke-linecap="butt" d="m480.0 236.86351l0 53.79265" fill-rule="nonzero"/><path stroke="#9e9e9e" stroke-width="1.0" stroke-linecap="butt" d="m551.12335 236.86351l0 53.79265" fill-rule="nonzero"/><path stroke="#9e9e9e" stroke-width="1.0" stroke-linecap="butt" d="m622.2467 236.86351l0 53.79265" fill-rule="nonzero"/><path stroke="#9e9e9e" stroke-width="1.0" stroke-linecap="butt" d="m693.37006 236.86351l0 53.79265" fill-rule="nonzero"/><path stroke="#9e9e9e" stroke-width="1.0" stroke-linecap="butt" d="m764.4934 236.86351l0 53.79265" fill-rule="nonzero"/><path stroke="#9e9e9e" stroke-width="1.0" stroke-linecap="butt" d="m195.00787 237.3622l569.98425 0" fill-rule="nonzero"/><path stroke="#9e9e9e" stroke-width="1.0" stroke-linecap="butt" d="m195.00787 290.15747l569.98425 0" fill-rule="nonzero"/><path fill="#000000" d="m237.45398 270.27734l0 3.5625l-13.46875 0q0.21875 -2.03125 1.3125 -3.828125q1.09375 -1.8125 4.3125 -4.8125q2.59375 -2.421875 3.1875 -3.28125q0.796875 -1.1875 0.796875 -2.359375q0 -1.28125 -0.703125 -1.96875q-0.6875 -0.6875 -1.890625 -0.6875q-1.203125 0 -1.921875 0.734375q-0.703125 0.71875 -0.8125 2.390625l-3.828125 -0.375q0.328125 -3.171875 2.125 -4.546875q1.8125 -1.390625 4.53125 -1.390625q2.96875 0 4.65625 1.609375q1.703125 1.59375 1.703125 3.96875q0 1.359375 -0.5 2.578125q-0.484375 1.21875 -1.53125 2.5625q-0.703125 0.890625 -2.515625 2.5625q-1.8125 1.65625 -2.296875 2.203125q-0.484375 0.546875 -0.796875 1.078125l7.640625 0z" fill-rule="nonzero"/><path fill="#000000" d="m295.45233 268.52734l3.71875 -0.453125q0.1875 1.421875 0.96875 2.171875q0.78125 0.75 1.875 0.75q1.203125 0 2.015625 -0.90625q0.8125 -0.90625 0.8125 -2.4375q0 -1.4375 -0.78125 -2.28125q-0.78125 -0.859375 -1.90625 -0.859375q-0.734375 0 -1.765625 0.296875l0.421875 -3.140625q1.5625 0.046875 2.375 -0.671875q0.828125 -0.71875 0.828125 -1.90625q0 -1.015625 -0.609375 -1.609375q-0.59375 -0.609375 -1.59375 -0.609375q-0.984375 0 -1.6875 0.6875q-0.6875 0.6875 -0.84375 2.0l-3.53125 -0.609375q0.359375 -1.8125 1.109375 -2.890625q0.75 -1.09375 2.078125 -1.71875q1.328125 -0.625 2.984375 -0.625q2.828125 0 4.546875 1.796875q1.40625 1.484375 1.40625 3.34375q0 2.640625 -2.890625 4.203125q1.734375 0.375 2.765625 1.671875q1.03125 1.28125 1.03125 3.09375q0 2.640625 -1.9375 4.5q-1.921875 1.859375 -4.796875 1.859375q-2.71875 0 -4.515625 -1.5625q-1.78125 -1.578125 -2.078125 -4.09375z" fill-rule="nonzero"/><path fill="#000000" d="m374.2476 273.83984l0 -4.03125l-8.203125 0l0 -3.359375l8.703125 -12.734375l3.21875 0l0 12.71875l2.5 0l0 3.375l-2.5 0l0 4.03125l-3.71875 0zm0 -7.40625l0 -6.859375l-4.609375 6.859375l4.609375 0z" fill-rule="nonzero"/><path fill="#000000" d="m437.9022 268.6836l3.828125 -0.390625q0.15625 1.296875 0.953125 2.0625q0.8125 0.75 1.875 0.75q1.203125 0 2.03125 -0.96875q0.84375 -0.984375 0.84375 -2.953125q0 -1.84375 -0.828125 -2.765625q-0.828125 -0.921875 -2.15625 -0.921875q-1.65625 0 -2.96875 1.453125l-3.125 -0.453125l1.96875 -10.421875l10.171875 0l0 3.59375l-7.25 0l-0.609375 3.40625q1.296875 -0.640625 2.625 -0.640625q2.5625 0 4.328125 1.859375q1.78125 1.859375 1.78125 4.8125q0 2.484375 -1.421875 4.421875q-1.96875 2.65625 -5.4375 2.65625q-2.765625 0 -4.515625 -1.484375q-1.75 -1.5 -2.09375 -4.015625z" fill-rule="nonzero"/><path fill="#000000" d="m521.9787 258.69922l-3.71875 0.421875q-0.140625 -1.15625 -0.71875 -1.703125q-0.5625 -0.546875 -1.484375 -0.546875q-1.21875 0 -2.0625 1.09375q-0.828125 1.09375 -1.046875 4.546875q1.4375 -1.6875 3.5625 -1.6875q2.40625 0 4.125 1.828125q1.71875 1.828125 1.71875 4.734375q0 3.078125 -1.8125 4.9375q-1.796875 1.859375 -4.625 1.859375q-3.046875 0 -5.0000305 -2.359375q-1.953125 -2.359375 -1.953125 -7.734375q0 -5.515625 2.03125 -7.9375q2.0469055 -2.4375 5.2969055 -2.4375q2.28125 0 3.78125 1.28125q1.5 1.28125 1.90625 3.703125zm-8.703125 8.390625q0 1.875 0.859375 2.890625q0.859375 1.015625 1.96875 1.015625q1.0625 0 1.765625 -0.828125q0.71875 -0.84375 0.71875 -2.734375q0 -1.96875 -0.765625 -2.875q-0.765625 -0.90625 -1.90625 -0.90625q-1.109375 0 -1.875 0.875q-0.765625 0.859375 -0.765625 2.5625z" fill-rule="nonzero"/><path fill="#000000" d="m580.0864 257.63672l0 -3.5625l13.140625 0l0 2.78125q-1.625 1.609375 -3.3125 4.609375q-1.671875 2.984375 -2.5625 6.359375q-0.875 3.359375 -0.859375 6.015625l-3.703125 0q0.09375 -4.15625 1.703125 -8.46875q1.625 -4.328125 4.328125 -7.734375l-8.734375 0z" fill-rule="nonzero"/><path fill="#000000" d="m654.50665 263.02734q-1.484375 -0.625 -2.171875 -1.71875q-0.671875 -1.109375 -0.671875 -2.421875q0 -2.25 1.5625 -3.703125q1.5625 -1.46875 4.453125 -1.46875q2.859375 0 4.4375 1.46875q1.578125 1.453125 1.578125 3.703125q0 1.390625 -0.734375 2.484375q-0.71875 1.078125 -2.03125 1.65625q1.671875 0.671875 2.53125 1.953125q0.875 1.28125 0.875 2.96875q0 2.765625 -1.765625 4.515625q-1.765625 1.734375 -4.71875 1.734375q-2.734375 0 -4.546875 -1.4375q-2.140625 -1.703125 -2.140625 -4.65625q0 -1.625 0.796875 -2.984375q0.8125 -1.359375 2.546875 -2.09375zm0.796875 -3.875q0 1.15625 0.640625 1.796875q0.65625 0.640625 1.734375 0.640625q1.09375 0 1.75 -0.640625q0.65625 -0.65625 0.65625 -1.8125q0 -1.078125 -0.65625 -1.71875q-0.640625 -0.65625 -1.703125 -0.65625q-1.109375 0 -1.765625 0.65625q-0.65625 0.65625 -0.65625 1.734375zm-0.359375 8.59375q0 1.578125 0.8125 2.46875q0.8125 0.890625 2.03125 0.890625q1.1875 0 1.96875 -0.84375q0.78125 -0.859375 0.78125 -2.484375q0 -1.40625 -0.796875 -2.25q-0.796875 -0.859375 -2.0 -0.859375q-1.421875 0 -2.109375 0.96875q-0.6875 0.96875 -0.6875 2.109375z" fill-rule="nonzero"/><path fill="#000000" d="m722.41125 269.19922l3.71875 -0.40625q0.140625 1.140625 0.71875 1.6875q0.578125 0.546875 1.515625 0.546875q1.1875 0 2.015625 -1.09375q0.84375 -1.09375 1.078125 -4.546875q-1.453125 1.6875 -3.625 1.6875q-2.359375 0 -4.078125 -1.828125q-1.71875 -1.828125 -1.71875 -4.75q0 -3.046875 1.8125 -4.90625q1.8125 -1.875 4.609375 -1.875q3.046875 0 5.0 2.359375q1.96875 2.359375 1.96875 7.75q0 5.5 -2.046875 7.9375q-2.03125 2.4375 -5.296875 2.4375q-2.359375 0 -3.8125 -1.25q-1.4375 -1.25 -1.859375 -3.75zm8.703125 -8.390625q0 -1.859375 -0.859375 -2.875q-0.84375 -1.03125 -1.96875 -1.03125q-1.0625 0 -1.78125 0.84375q-0.703125 0.828125 -0.703125 2.75q0 1.9375 0.765625 2.859375q0.765625 0.90625 1.921875 0.90625q1.109375 0 1.859375 -0.875q0.765625 -0.875 0.765625 -2.578125z" fill-rule="nonzero"/><path fill="#000000" fill-opacity="0.0" d="m694.62994 210.8924l-429.25986 0" fill-rule="evenodd"/><path stroke="#000000" stroke-width="4.0" stroke-linejoin="round" stroke-linecap="butt" d="m694.62994 210.8924l-405.25986 0" fill-rule="evenodd"/><path fill="#000000" stroke="#000000" stroke-width="4.0" stroke-linecap="butt" d="m289.3701 204.28546l-18.152405 6.6069336l18.152405 6.6069183z" fill-rule="evenodd"/><path fill="#000000" fill-opacity="0.0" d="m179.39108 152.6798l89.07086 0l0 39.842514l-89.07086 0z" fill-rule="evenodd"/><path fill="#000000" d="m190.15671 184.71979l0 -17.1875l3.46875 0l0 6.765625l6.796875 0l0 -6.765625l3.46875 0l0 17.1875l-3.46875 0l0 -7.515625l-6.796875 0l0 7.515625l-3.46875 0zm24.503906 -3.96875l3.28125 0.5625q-0.640625 1.796875 -2.015625 2.75q-1.359375 0.9375 -3.40625 0.9375q-3.25 0 -4.796875 -2.125q-1.234375 -1.703125 -1.234375 -4.28125q0 -3.09375 1.609375 -4.84375q1.625 -1.765625 4.09375 -1.765625q2.78125 0 4.375 1.84375q1.609375 1.828125 1.546875 5.609375l-8.25 0q0.03125 1.46875 0.796875 2.28125q0.765625 0.8125 1.890625 0.8125q0.78125 0 1.296875 -0.421875q0.53125 -0.421875 0.8125 -1.359375zm0.1875 -3.328125q-0.046875 -1.421875 -0.75 -2.15625q-0.703125 -0.75 -1.703125 -0.75q-1.078125 0 -1.78125 0.78125q-0.703125 0.78125 -0.6875 2.125l4.921875 0zm8.410156 -1.359375l-2.984375 -0.53125q0.5 -1.8125 1.71875 -2.671875q1.234375 -0.875 3.671875 -0.875q2.203125 0 3.28125 0.53125q1.078125 0.515625 1.515625 1.328125q0.4375 0.796875 0.4375 2.9375l-0.03125 3.84375q0 1.640625 0.15625 2.421875q0.15625 0.78125 0.59375 1.671875l-3.265625 0q-0.125 -0.328125 -0.3125 -0.96875q-0.078125 -0.296875 -0.125 -0.390625q-0.84375 0.8125 -1.8125 1.234375q-0.953125 0.40625 -2.03125 0.40625q-1.921875 0 -3.03125 -1.046875q-1.109375 -1.046875 -1.109375 -2.640625q0 -1.046875 0.5 -1.875q0.5 -0.828125 1.40625 -1.265625q0.921875 -0.4375 2.625 -0.765625q2.3125 -0.4375 3.203125 -0.8125l0 -0.328125q0 -0.953125 -0.46875 -1.34375q-0.46875 -0.40625 -1.765625 -0.40625q-0.890625 0 -1.390625 0.34375q-0.484375 0.34375 -0.78125 1.203125zm4.40625 2.671875q-0.640625 0.21875 -2.015625 0.515625q-1.359375 0.28125 -1.78125 0.5625q-0.640625 0.46875 -0.640625 1.171875q0 0.6875 0.515625 1.1875q0.515625 0.5 1.3125 0.5q0.890625 0 1.6875 -0.578125q0.609375 -0.453125 0.796875 -1.09375q0.125 -0.421875 0.125 -1.609375l0 -0.65625zm17.894531 5.984375l-3.0625 0l0 -1.828125q-0.765625 1.0625 -1.796875 1.59375q-1.03125 0.515625 -2.09375 0.515625q-2.140625 0 -3.671875 -1.71875q-1.53125 -1.734375 -1.53125 -4.828125q0 -3.171875 1.484375 -4.8125q1.5 -1.65625 3.765625 -1.65625q2.09375 0 3.609375 1.734375l0 -6.1875l3.296875 0l0 17.1875zm-8.796875 -6.5q0 2.0 0.5625 2.890625q0.796875 1.28125 2.21875 1.28125q1.140625 0 1.9375 -0.953125q0.796875 -0.96875 0.796875 -2.890625q0 -2.15625 -0.78125 -3.09375q-0.765625 -0.9375 -1.96875 -0.9375q-1.171875 0 -1.96875 0.9375q-0.796875 0.921875 -0.796875 2.765625z" fill-rule="nonzero"/><path fill="#000000" fill-opacity="0.0" d="m714.7507 152.6798l65.85828 0l0 39.842514l-65.85828 0z" fill-rule="evenodd"/><path fill="#000000" d="m729.36005 184.71979l0 -14.28125l-5.09375 0l0 -2.90625l13.65625 0l0 2.90625l-5.09375 0l0 14.28125l-3.46875 0zm11.457031 -8.65625l-2.984375 -0.53125q0.5 -1.8125 1.71875 -2.671875q1.234375 -0.875 3.671875 -0.875q2.203125 0 3.28125 0.53125q1.078125 0.515625 1.515625 1.328125q0.4375 0.796875 0.4375 2.9375l-0.03125 3.84375q0 1.640625 0.15625 2.421875q0.15625 0.78125 0.59375 1.671875l-3.265625 0q-0.125 -0.328125 -0.3125 -0.96875q-0.078125 -0.296875 -0.125 -0.390625q-0.84375 0.8125 -1.8125 1.234375q-0.953125 0.40625 -2.03125 0.40625q-1.921875 0 -3.03125 -1.046875q-1.109375 -1.046875 -1.109375 -2.640625q0 -1.046875 0.5 -1.875q0.5 -0.828125 1.40625 -1.265625q0.921875 -0.4375 2.625 -0.765625q2.3125 -0.4375 3.203125 -0.8125l0 -0.328125q0 -0.953125 -0.46875 -1.34375q-0.46875 -0.40625 -1.765625 -0.40625q-0.890625 0 -1.390625 0.34375q-0.484375 0.34375 -0.78125 1.203125zm4.40625 2.671875q-0.640625 0.21875 -2.015625 0.515625q-1.359375 0.28125 -1.78125 0.5625q-0.640625 0.46875 -0.640625 1.171875q0 0.6875 0.515625 1.1875q0.515625 0.5 1.3125 0.5q0.890625 0 1.6875 -0.578125q0.609375 -0.453125 0.796875 -1.09375q0.125 -0.421875 0.125 -1.609375l0 -0.65625zm6.4726562 -8.15625l0 -3.046875l3.296875 0l0 3.046875l-3.296875 0zm0 14.140625l0 -12.453125l3.296875 0l0 12.453125l-3.296875 0zm6.6679688 0l0 -17.1875l3.296875 0l0 17.1875l-3.296875 0z" fill-rule="nonzero"/><path fill="#000000" fill-opacity="0.0" d="m411.8819 99.89239l133.16534 0l0 52.787407l-133.16534 0z" fill-rule="evenodd"/><path fill="#000000" d="m439.91315 134.39613q1.5625 1.109375 3.390625 1.765625l-1.5625 3.0q-0.953125 -0.296875 -1.875 -0.796875q-0.203125 -0.09375 -2.8125 -1.859375q-2.0625 0.90625 -4.578125 0.90625q-4.828125 0 -7.578125 -2.84375q-2.734375 -2.859375 -2.734375 -8.015617q0 -5.140625 2.75 -8.0q2.75 -2.859375 7.453125 -2.859375q4.671875 0 7.40625 2.859375q2.734375 2.859375 2.734375 8.0q0 2.7187424 -0.765625 4.7812424q-0.5625 1.578125 -1.828125 3.0625zm-3.40625 -2.40625q0.8125 -0.953125 1.21875 -2.3125q0.40625 -1.359375 0.40625 -3.1249924q0 -3.640625 -1.609375 -5.4375q-1.59375 -1.796875 -4.1875 -1.796875q-2.59375 0 -4.203125 1.8125q-1.609375 1.796875 -1.609375 5.421875q0 3.6874924 1.609375 5.5156174q1.609375 1.8125 4.078125 1.8125q0.921875 0 1.734375 -0.296875q-1.296875 -0.84375 -2.625 -1.3125l1.1875 -2.421875q2.09375 0.71875 4.0 2.140625zm9.296722 -15.937492l4.234375 0l0 11.375q0 2.7031174 0.15625 3.5156174q0.28125 1.28125 1.296875 2.0625q1.03125 0.78125 2.796875 0.78125q1.8125 0 2.71875 -0.734375q0.921875 -0.734375 1.109375 -1.8125q0.1875 -1.078125 0.1875 -3.5624924l0 -11.625l4.234375 0l0 11.03125q0 3.7812424 -0.34375 5.3437424q-0.34375 1.5625 -1.265625 2.640625q-0.921875 1.0625 -2.46875 1.703125q-1.546875 0.640625 -4.046875 0.640625q-3.0 0 -4.5625 -0.6875q-1.546875 -0.703125 -2.453125 -1.8125q-0.890625 -1.109375 -1.1875 -2.328125q-0.40625 -1.796875 -0.40625 -5.3281174l0 -11.203125zm21.21109 20.999992l0 -20.999992l15.5625 0l0 3.5625l-11.328125 0l0 4.65625l10.53125 0l0 3.53125l-10.53125 0l0 5.7187424l11.71875 0l0 3.53125l-15.953125 0zm19.530396 -20.999992l4.234375 0l0 11.375q0 2.7031174 0.15625 3.5156174q0.28125 1.28125 1.296875 2.0625q1.03125 0.78125 2.796875 0.78125q1.8125 0 2.71875 -0.734375q0.921875 -0.734375 1.109375 -1.8125q0.1875 -1.078125 0.1875 -3.5624924l0 -11.625l4.234375 0l0 11.03125q0 3.7812424 -0.34375 5.3437424q-0.34375 1.5625 -1.265625 2.640625q-0.921875 1.0625 -2.46875 1.703125q-1.546875 0.640625 -4.046875 0.640625q-3.0 0 -4.5625 -0.6875q-1.546875 -0.703125 -2.453125 -1.8125q-0.890625 -1.109375 -1.1875 -2.328125q-0.40625 -1.796875 -0.40625 -5.3281174l0 -11.203125zm21.21109 20.999992l0 -20.999992l15.5624695 0l0 3.5625l-11.3280945 0l0 4.65625l10.5312195 0l0 3.53125l-10.5312195 0l0 5.7187424l11.7187195 0l0 3.53125l-15.9530945 0z" fill-rule="nonzero"/><path fill="#000000" fill-opacity="0.0" d="m118.32284 327.32022l55.590553 0l0 52.787384l-55.590553 0z" fill-rule="evenodd"/><path stroke="#000000" stroke-width="1.0" stroke-linejoin="round" stroke-linecap="butt" d="m118.32284 327.32022l55.590553 0l0 52.787384l-55.590553 0z" fill-rule="evenodd"/><path fill="#000000" d="m149.19002 363.3139l-3.65625 0l0 -13.78125q-2.0 1.875 -4.71875 2.765625l0 -3.3125q1.4375 -0.46875 3.109375 -1.78125q1.671875 -1.3125 2.296875 -3.046875l2.96875 0l0 19.15625z" fill-rule="nonzero"/><path fill="#000000" fill-opacity="0.0" d="m791.54333 327.32022l55.590515 0l0 52.787384l-55.590515 0z" fill-rule="evenodd"/><path stroke="#000000" stroke-width="1.0" stroke-linejoin="round" stroke-linecap="butt" d="m791.54333 327.32022l55.590515 0l0 52.787384l-55.590515 0z" fill-rule="evenodd"/><path fill="#000000" d="m814.99805 363.3139l-3.65625 0l0 -13.78125q-2.0 1.875 -4.71875 2.765625l0 -3.3125q1.4375 -0.46875 3.109375 -1.78125q1.671875 -1.3125 2.296875 -3.046875l2.96875 0l0 19.15625zm11.653015 -19.15625q2.78125 0 4.34375 1.96875q1.859375 2.34375 1.859375 7.78125q0 5.40625 -1.875 7.78125q-1.546875 1.953125 -4.328125 1.953125q-2.78125 0 -4.484375 -2.140625q-1.703125 -2.140625 -1.703125 -7.640625q0 -5.390625 1.875 -7.75q1.546875 -1.953125 4.3125 -1.953125zm0 3.03125q-0.65625 0 -1.1875 0.421875q-0.515625 0.421875 -0.796875 1.515625q-0.375 1.421875 -0.375 4.78125q0 3.359375 0.328125 4.609375q0.34375 1.25 0.859375 1.671875q0.515625 0.421875 1.171875 0.421875q0.671875 0 1.1875 -0.421875q0.515625 -0.421875 0.8125 -1.515625q0.375 -1.40625 0.375 -4.765625q0 -3.359375 -0.34375 -4.609375q-0.34375 -1.265625 -0.859375 -1.6875q-0.5 -0.421875 -1.171875 -0.421875z" fill-rule="nonzero"/><path fill="#000000" fill-opacity="0.0" d="m811.47504 307.9239l-30.866089 -48.37796" fill-rule="evenodd"/><path stroke="#000000" stroke-width="2.0" stroke-linejoin="round" stroke-linecap="butt" stroke-dasharray="8.0,6.0" d="m811.47504 307.9239l-24.411743 -38.261597" fill-rule="evenodd"/><path fill="#000000" stroke="#000000" stroke-width="2.0" stroke-linecap="butt" d="m789.84827 267.88544l-7.666687 -5.8746643l2.0968628 9.428314z" fill-rule="evenodd"/><path fill="#000000" fill-opacity="0.0" d="m179.39108 257.4672l-27.275604 52.53543" fill-rule="evenodd"/><path stroke="#000000" stroke-width="2.0" stroke-linejoin="round" stroke-linecap="butt" stroke-dasharray="8.0,6.0" d="m179.39108 257.4672l-21.7462 41.885284" fill-rule="evenodd"/><path fill="#000000" stroke="#000000" stroke-width="2.0" stroke-linecap="butt" d="m154.71301 297.8303l-1.2502899 9.577423l7.114029 -6.5330505z" fill-rule="evenodd"/><path fill="#000000" fill-opacity="0.0" d="m612.1207 344.34647l152.40948 0l0 31.307068l-152.40948 0z" fill-rule="evenodd"/><path fill="#ff0000" d="m635.913 376.38644l0 -3.296875l3.296875 0l0 3.296875l-3.296875 0zm13.886719 -3.96875l3.28125 0.5625q-0.640625 1.796875 -2.015625 2.75q-1.359375 0.9375 -3.40625 0.9375q-3.25 0 -4.796875 -2.125q-1.234375 -1.703125 -1.234375 -4.28125q0 -3.09375 1.609375 -4.84375q1.625 -1.765625 4.09375 -1.765625q2.78125 0 4.375 1.84375q1.609375 1.828125 1.546875 5.609375l-8.25 0q0.03125 1.46875 0.796875 2.28125q0.765625 0.8125 1.890625 0.8125q0.78125 0 1.296875 -0.421875q0.53125 -0.421875 0.8125 -1.359375zm0.1875 -3.328125q-0.046875 -1.421875 -0.75 -2.15625q-0.703125 -0.75 -1.703125 -0.75q-1.078125 0 -1.78125 0.78125q-0.703125 0.78125 -0.6875 2.125l4.921875 0zm17.269531 7.296875l-3.296875 0l0 -6.359375q0 -2.015625 -0.21875 -2.59375q-0.203125 -0.59375 -0.6875 -0.921875q-0.46875 -0.328125 -1.125 -0.328125q-0.859375 0 -1.546875 0.46875q-0.671875 0.46875 -0.921875 1.25q-0.25 0.765625 -0.25 2.84375l0 5.640625l-3.296875 0l0 -12.453125l3.0625 0l0 1.828125q1.625 -2.109375 4.09375 -2.109375q1.09375 0 1.984375 0.40625q0.90625 0.390625 1.375 1.0q0.46875 0.609375 0.640625 1.390625q0.1875 0.765625 0.1875 2.203125l0 7.734375zm11.472656 4.734375l0 -6.265625q-0.640625 0.84375 -1.609375 1.328125q-0.953125 0.484375 -2.078125 0.484375q-2.109375 0 -3.484375 -1.59375q-1.625 -1.859375 -1.625 -5.046875q0 -3.0 1.515625 -4.6875q1.53125 -1.6875 3.78125 -1.6875q1.234375 0 2.140625 0.53125q0.90625 0.53125 1.609375 1.59375l0 -1.84375l3.046875 0l0 17.1875l-3.296875 0zm0.109375 -11.109375q0 -1.90625 -0.78125 -2.84375q-0.78125 -0.9375 -1.953125 -0.9375q-1.203125 0 -2.0 0.953125q-0.796875 0.953125 -0.796875 3.015625q0 2.046875 0.765625 2.953125q0.78125 0.90625 1.90625 0.90625q1.140625 0 2.0 -1.015625q0.859375 -1.015625 0.859375 -3.03125zm14.613281 6.375l0 -1.859375q-0.6875 0.984375 -1.796875 1.5625q-1.109375 0.578125 -2.328125 0.578125q-1.265625 0 -2.265625 -0.546875q-0.984375 -0.5625 -1.4375 -1.546875q-0.4375 -1.0 -0.4375 -2.765625l0 -7.875l3.296875 0l0 5.71875q0 2.625 0.171875 3.21875q0.1875 0.59375 0.65625 0.9375q0.484375 0.34375 1.234375 0.34375q0.84375 0 1.5 -0.453125q0.671875 -0.46875 0.921875 -1.15625q0.25 -0.6875 0.25 -3.359375l0 -5.25l3.28125 0l0 12.453125l-3.046875 0zm13.675781 -3.96875l3.28125 0.5625q-0.640625 1.796875 -2.015625 2.75q-1.359375 0.9375 -3.40625 0.9375q-3.25 0 -4.796875 -2.125q-1.234375 -1.703125 -1.234375 -4.28125q0 -3.09375 1.609375 -4.84375q1.625 -1.765625 4.09375 -1.765625q2.78125 0 4.375 1.84375q1.609375 1.828125 1.546875 5.609375l-8.25 0q0.03125 1.46875 0.796875 2.28125q0.765625 0.8125 1.890625 0.8125q0.78125 0 1.296875 -0.421875q0.53125 -0.421875 0.8125 -1.359375zm0.1875 -3.328125q-0.046875 -1.421875 -0.75 -2.15625q-0.703125 -0.75 -1.703125 -0.75q-1.078125 0 -1.78125 0.78125q-0.703125 0.78125 -0.6875 2.125l4.921875 0zm14.144531 7.296875l0 -1.859375q-0.6875 0.984375 -1.796875 1.5625q-1.109375 0.578125 -2.328125 0.578125q-1.265625 0 -2.265625 -0.546875q-0.984375 -0.5625 -1.4375 -1.546875q-0.4375 -1.0 -0.4375 -2.765625l0 -7.875l3.296875 0l0 5.71875q0 2.625 0.171875 3.21875q0.1875 0.59375 0.65625 0.9375q0.484375 0.34375 1.234375 0.34375q0.84375 0 1.5 -0.453125q0.671875 -0.46875 0.921875 -1.15625q0.25 -0.6875 0.25 -3.359375l0 -5.25l3.28125 0l0 12.453125l-3.046875 0zm13.675781 -3.96875l3.28125 0.5625q-0.640625 1.796875 -2.015625 2.75q-1.359375 0.9375 -3.40625 0.9375q-3.25 0 -4.796875 -2.125q-1.234375 -1.703125 -1.234375 -4.28125q0 -3.09375 1.609375 -4.84375q1.625 -1.765625 4.09375 -1.765625q2.78125 0 4.375 1.84375q1.609375 1.828125 1.546875 5.609375l-8.25 0q0.03125 1.46875 0.796875 2.28125q0.765625 0.8125 1.890625 0.8125q0.78125 0 1.296875 -0.421875q0.53125 -0.421875 0.8125 -1.359375zm0.1875 -3.328125q-0.046875 -1.421875 -0.75 -2.15625q-0.703125 -0.75 -1.703125 -0.75q-1.078125 0 -1.78125 0.78125q-0.703125 0.78125 -0.6875 2.125l4.921875 0zm11.410156 12.34375l-2.265625 0q-1.796875 -2.703125 -2.734375 -5.625q-0.9375 -2.921875 -0.9375 -5.640625q0 -3.390625 1.171875 -6.421875q1.0 -2.625 2.546875 -4.828125l2.25 0q-1.609375 3.546875 -2.21875 6.046875q-0.59375 2.484375 -0.59375 5.265625q0 1.921875 0.359375 3.9375q0.359375 2.015625 0.984375 3.84375q0.40625 1.1875 1.4375 3.421875zm1.6171875 0q0.96875 -2.078125 1.359375 -3.203125q0.40625 -1.109375 0.75 -2.5625q0.34375 -1.453125 0.5 -2.75q0.171875 -1.3125 0.171875 -2.6875q0 -2.78125 -0.609375 -5.265625q-0.59375 -2.5 -2.203125 -6.046875l2.25 0q1.765625 2.515625 2.734375 5.34375q0.984375 2.8125 0.984375 5.71875q0 2.453125 -0.765625 5.25q-0.890625 3.15625 -2.90625 6.203125l-2.265625 0z" fill-rule="nonzero"/><path fill="#000000" fill-opacity="0.0" d="m195.50656 344.34647l152.40945 0l0 31.307068l-152.40945 0z" fill-rule="evenodd"/><path fill="#ff0000" d="m206.22531 376.38644l0 -3.296875l3.296875 0l0 3.296875l-3.296875 0zm18.089844 0l-3.0625 0l0 -1.828125q-0.765625 1.0625 -1.796875 1.59375q-1.03125 0.515625 -2.09375 0.515625q-2.140625 0 -3.671875 -1.71875q-1.53125 -1.734375 -1.53125 -4.828125q0 -3.171875 1.484375 -4.8125q1.5 -1.65625 3.765625 -1.65625q2.09375 0 3.609375 1.734375l0 -6.1875l3.296875 0l0 17.1875zm-8.796875 -6.5q0 2.0 0.5625 2.890625q0.796875 1.28125 2.21875 1.28125q1.140625 0 1.9375 -0.953125q0.796875 -0.96875 0.796875 -2.890625q0 -2.15625 -0.78125 -3.09375q-0.765625 -0.9375 -1.96875 -0.9375q-1.171875 0 -1.96875 0.9375q-0.796875 0.921875 -0.796875 2.765625zm19.253906 2.53125l3.28125 0.5625q-0.640625 1.796875 -2.015625 2.75q-1.359375 0.9375 -3.40625 0.9375q-3.25 0 -4.796875 -2.125q-1.234375 -1.703125 -1.234375 -4.28125q0 -3.09375 1.609375 -4.84375q1.625 -1.765625 4.09375 -1.765625q2.78125 0 4.375 1.84375q1.609375 1.828125 1.546875 5.609375l-8.25 0q0.03125 1.46875 0.796875 2.28125q0.765625 0.8125 1.890625 0.8125q0.78125 0 1.296875 -0.421875q0.53125 -0.421875 0.8125 -1.359375zm0.1875 -3.328125q-0.046875 -1.421875 -0.75 -2.15625q-0.703125 -0.75 -1.703125 -0.75q-1.078125 0 -1.78125 0.78125q-0.703125 0.78125 -0.6875 2.125l4.921875 0zm14.082031 12.03125l0 -6.265625q-0.640625 0.84375 -1.609375 1.328125q-0.953125 0.484375 -2.078125 0.484375q-2.109375 0 -3.484375 -1.59375q-1.625 -1.859375 -1.625 -5.046875q0 -3.0 1.515625 -4.6875q1.53125 -1.6875 3.78125 -1.6875q1.234375 0 2.140625 0.53125q0.90625 0.53125 1.609375 1.59375l0 -1.84375l3.046875 0l0 17.1875l-3.296875 0zm0.109375 -11.109375q0 -1.90625 -0.78125 -2.84375q-0.78125 -0.9375 -1.953125 -0.9375q-1.203125 0 -2.0 0.953125q-0.796875 0.953125 -0.796875 3.015625q0 2.046875 0.765625 2.953125q0.78125 0.90625 1.90625 0.90625q1.140625 0 2.0 -1.015625q0.859375 -1.015625 0.859375 -3.03125zm14.613281 6.375l0 -1.859375q-0.6875 0.984375 -1.796875 1.5625q-1.109375 0.578125 -2.328125 0.578125q-1.265625 0 -2.265625 -0.546875q-0.984375 -0.5625 -1.4375 -1.546875q-0.4375 -1.0 -0.4375 -2.765625l0 -7.875l3.296875 0l0 5.71875q0 2.625 0.171875 3.21875q0.1875 0.59375 0.65625 0.9375q0.484375 0.34375 1.234375 0.34375q0.84375 0 1.5 -0.453125q0.671875 -0.46875 0.921875 -1.15625q0.25 -0.6875 0.25 -3.359375l0 -5.25l3.28125 0l0 12.453125l-3.046875 0zm13.675781 -3.96875l3.28125 0.5625q-0.640625 1.796875 -2.015625 2.75q-1.359375 0.9375 -3.40625 0.9375q-3.25 0 -4.796875 -2.125q-1.234375 -1.703125 -1.234375 -4.28125q0 -3.09375 1.609375 -4.84375q1.625 -1.765625 4.09375 -1.765625q2.78125 0 4.375 1.84375q1.609375 1.828125 1.546875 5.609375l-8.25 0q0.03125 1.46875 0.796875 2.28125q0.765625 0.8125 1.890625 0.8125q0.78125 0 1.296875 -0.421875q0.53125 -0.421875 0.8125 -1.359375zm0.1875 -3.328125q-0.046875 -1.421875 -0.75 -2.15625q-0.703125 -0.75 -1.703125 -0.75q-1.078125 0 -1.78125 0.78125q-0.703125 0.78125 -0.6875 2.125l4.921875 0zm14.144531 7.296875l0 -1.859375q-0.6875 0.984375 -1.796875 1.5625q-1.109375 0.578125 -2.328125 0.578125q-1.265625 0 -2.265625 -0.546875q-0.984375 -0.5625 -1.4375 -1.546875q-0.4375 -1.0 -0.4375 -2.765625l0 -7.875l3.296875 0l0 5.71875q0 2.625 0.171875 3.21875q0.1875 0.59375 0.65625 0.9375q0.484375 0.34375 1.234375 0.34375q0.84375 0 1.5 -0.453125q0.671875 -0.46875 0.921875 -1.15625q0.25 -0.6875 0.25 -3.359375l0 -5.25l3.28125 0l0 12.453125l-3.046875 0zm13.675781 -3.96875l3.28125 0.5625q-0.640625 1.796875 -2.015625 2.75q-1.359375 0.9375 -3.40625 0.9375q-3.25 0 -4.796875 -2.125q-1.234375 -1.703125 -1.234375 -4.28125q0 -3.09375 1.609375 -4.84375q1.625 -1.765625 4.09375 -1.765625q2.78125 0 4.375 1.84375q1.609375 1.828125 1.546875 5.609375l-8.25 0q0.03125 1.46875 0.796875 2.28125q0.765625 0.8125 1.890625 0.8125q0.78125 0 1.296875 -0.421875q0.53125 -0.421875 0.8125 -1.359375zm0.1875 -3.328125q-0.046875 -1.421875 -0.75 -2.15625q-0.703125 -0.75 -1.703125 -0.75q-1.078125 0 -1.78125 0.78125q-0.703125 0.78125 -0.6875 2.125l4.921875 0zm11.410156 12.34375l-2.265625 0q-1.796875 -2.703125 -2.734375 -5.625q-0.9375 -2.921875 -0.9375 -5.640625q0 -3.390625 1.171875 -6.421875q1.0 -2.625 2.546875 -4.828125l2.25 0q-1.609375 3.546875 -2.21875 6.046875q-0.59375 2.484375 -0.59375 5.265625q0 1.921875 0.359375 3.9375q0.359375 2.015625 0.984375 3.84375q0.40625 1.1875 1.4375 3.421875zm1.6171875 0q0.96875 -2.078125 1.359375 -3.203125q0.40625 -1.109375 0.75 -2.5625q0.34375 -1.453125 0.5 -2.75q0.171875 -1.3125 0.171875 -2.6875q0 -2.78125 -0.609375 -5.265625q-0.59375 -2.5 -2.203125 -6.046875l2.25 0q1.765625 2.515625 2.734375 5.34375q0.984375 2.8125 0.984375 5.71875q0 2.453125 -0.765625 5.25q-0.890625 3.15625 -2.90625 6.203125l-2.265625 0z" fill-rule="nonzero"/></g></svg>